<svg width="71" height="54" viewBox="0 0 71 54" fill="none" xmlns="http://www.w3.org/2000/svg">
<path d="M16.572 16.748C16.624 16.826 16.676 16.943 16.728 17.099C16.806 17.255 16.884 17.437 16.962 17.645C17.04 17.827 17.092 18.009 17.118 18.191C17.17 18.347 17.183 18.477 17.157 18.581C17.105 18.737 17.04 18.841 16.962 18.893C16.884 18.919 16.78 18.932 16.65 18.932C16.026 18.932 15.324 19.01 14.544 19.166C13.738 19.322 12.945 19.543 12.165 19.829C11.385 20.115 10.67 20.479 10.02 20.921C9.37 21.363 8.889 21.883 8.577 22.481C8.525 22.611 8.473 22.767 8.421 22.949C8.369 23.105 8.382 23.365 8.46 23.729C8.564 24.067 8.772 24.522 9.084 25.094C9.396 25.64 9.877 26.368 10.527 27.278C11.047 26.914 11.697 26.485 12.477 25.991C13.257 25.471 14.011 24.964 14.739 24.47C15.493 23.976 16.156 23.547 16.728 23.183C17.3 22.793 17.651 22.546 17.781 22.442C17.963 22.312 18.171 22.247 18.405 22.247H18.444C18.73 22.273 18.912 22.429 18.99 22.715C19.094 22.975 19.029 23.196 18.795 23.378C17.573 24.314 16.351 25.172 15.129 25.952C13.933 26.706 12.711 27.564 11.463 28.526C11.827 28.994 12.191 29.475 12.555 29.969C12.919 30.463 13.244 30.97 13.53 31.49C13.66 31.724 13.777 32.023 13.881 32.387C14.011 32.751 14.063 33.167 14.037 33.635C14.037 34.077 13.933 34.558 13.725 35.078C13.517 35.598 13.153 36.118 12.633 36.638C12.269 37.002 11.762 37.392 11.112 37.808C10.488 38.25 9.812 38.653 9.084 39.017C8.356 39.381 7.628 39.68 6.9 39.914C6.172 40.148 5.535 40.265 4.989 40.265C4.547 40.265 4.131 40.174 3.741 39.992C3.377 39.836 3.013 39.589 2.649 39.251L2.025 38.666C1.817 38.432 1.622 38.172 1.44 37.886C1.258 37.626 1.141 37.34 1.089 37.028C1.011 36.742 1.037 36.443 1.167 36.131C1.349 35.637 1.648 35.156 2.064 34.688C2.584 34.064 3.143 33.479 3.741 32.933C4.365 32.361 4.976 31.815 5.574 31.295C6.12 30.801 6.666 30.346 7.212 29.93C7.784 29.488 8.369 29.046 8.967 28.604C8.785 28.37 8.564 28.071 8.304 27.707C8.044 27.317 7.771 26.927 7.485 26.537C7.225 26.147 6.965 25.757 6.705 25.367C6.471 24.977 6.276 24.639 6.12 24.353C5.6 23.469 5.34 22.65 5.34 21.896C5.366 21.116 5.535 20.375 5.847 19.673C6.159 18.997 6.601 18.373 7.173 17.801C7.745 17.229 8.382 16.735 9.084 16.319C9.812 15.903 10.566 15.578 11.346 15.344C12.126 15.084 12.867 14.954 13.569 14.954C14.323 14.954 14.908 15.084 15.324 15.344C15.74 15.604 16.156 16.072 16.572 16.748ZM2.376 36.677C3 36.599 3.78 36.417 4.716 36.131C5.652 35.871 6.562 35.52 7.446 35.078C8.33 34.636 9.084 34.116 9.708 33.518C10.358 32.894 10.722 32.218 10.8 31.49C10.8 31.36 10.761 31.217 10.683 31.061C10.631 30.905 10.553 30.749 10.449 30.593C10.371 30.411 10.28 30.255 10.176 30.125C10.072 29.969 9.994 29.865 9.942 29.813C8.304 31.295 6.835 32.608 5.535 33.752C4.261 34.87 3.208 35.845 2.376 36.677ZM34.0026 12.887C34.1066 13.017 34.2106 13.186 34.3146 13.394C34.4446 13.576 34.4836 13.758 34.4316 13.94C34.4056 14.148 34.2626 14.252 34.0026 14.252H33.8466C31.4026 14.018 28.9326 13.901 26.4366 13.901C25.6046 15.305 24.7596 16.865 23.9016 18.581C23.0436 20.271 22.2636 22.039 21.5616 23.885C20.8596 25.705 20.2746 27.538 19.8066 29.384C19.3386 31.23 19.0786 32.998 19.0266 34.688C18.9746 35.26 18.9746 35.819 19.0266 36.365C19.0526 36.495 19.0656 36.625 19.0656 36.755C19.0916 36.885 19.1176 37.015 19.1436 37.145V37.262C19.1956 37.418 19.2346 37.574 19.2606 37.73C19.3126 37.886 19.3646 38.042 19.4166 38.198C19.6246 38.406 19.8066 38.614 19.9626 38.822C20.1186 39.056 20.2356 39.29 20.3136 39.524C20.3656 39.654 20.3786 39.771 20.3526 39.875C20.3266 39.979 20.2486 40.057 20.1186 40.109H20.0016C19.8456 40.109 19.6766 40.057 19.4946 39.953C19.3126 39.849 19.1696 39.771 19.0656 39.719C18.2336 39.199 17.5316 38.549 16.9596 37.769C16.3876 36.989 15.9976 36.118 15.7896 35.156C15.6336 34.272 15.5686 33.388 15.5946 32.504C15.5946 31.62 15.6596 30.723 15.7896 29.813C16.2056 27.135 16.9206 24.444 17.9346 21.74C18.9486 19.036 20.0926 16.488 21.3666 14.096C20.6126 14.148 19.8716 14.213 19.1436 14.291C18.4156 14.343 17.6746 14.421 16.9206 14.525C16.6606 14.525 16.3616 14.447 16.0236 14.291C15.6856 14.109 15.3606 13.888 15.0486 13.628C14.7366 13.368 14.4636 13.082 14.2296 12.77C13.9956 12.458 13.8526 12.172 13.8006 11.912C13.7486 11.782 13.7356 11.652 13.7616 11.522C13.7876 11.392 13.8786 11.314 14.0346 11.288C15.5946 11.08 17.1286 10.937 18.6366 10.859C20.1706 10.755 21.7176 10.69 23.2776 10.664L24.3306 9.065C24.8246 8.337 25.3576 7.583 25.9296 6.803C26.5276 6.023 27.0996 5.347 27.6456 4.775C28.2176 4.177 28.6726 3.878 29.0106 3.878C29.2446 3.878 29.5046 3.969 29.7906 4.151C30.1026 4.307 30.3886 4.502 30.6486 4.736C30.9346 4.97 31.1816 5.217 31.3896 5.477C31.6236 5.737 31.7926 5.958 31.8966 6.14C31.8966 6.166 31.9096 6.218 31.9356 6.296C31.9876 6.374 32.0266 6.465 32.0526 6.569C32.0786 6.647 32.0916 6.725 32.0916 6.803C32.0916 6.881 32.0656 6.933 32.0136 6.959C31.7276 7.115 31.4156 7.362 31.0776 7.7C30.7396 8.012 30.4146 8.35 30.1026 8.714C29.7906 9.078 29.4916 9.442 29.2056 9.806C28.9196 10.17 28.6726 10.495 28.4646 10.781C28.9846 10.833 29.5046 10.872 30.0246 10.898C30.5446 10.924 31.0646 10.963 31.5846 11.015C31.7926 11.041 32.0136 11.132 32.2476 11.288C32.4816 11.418 32.7026 11.574 32.9106 11.756C33.1446 11.938 33.3526 12.133 33.5346 12.341C33.7426 12.549 33.8986 12.731 34.0026 12.887ZM39.8014 31.88C39.1514 32.816 38.4754 33.596 37.7734 34.22C37.0714 34.818 36.3434 35.117 35.5894 35.117C35.1474 35.117 34.7314 35.026 34.3414 34.844C33.9774 34.636 33.6394 34.376 33.3274 34.064C33.0414 33.752 32.7944 33.401 32.5864 33.011C32.3784 32.621 32.2224 32.231 32.1184 31.841C31.9884 31.373 31.9364 30.944 31.9624 30.554C32.0144 30.138 32.0144 29.774 31.9624 29.462C31.8064 29.67 31.5464 30.086 31.1824 30.71C30.8444 31.308 30.4674 31.932 30.0514 32.582C29.6354 33.206 29.2064 33.778 28.7644 34.298C28.3484 34.818 27.9844 35.078 27.6724 35.078C27.2824 35.078 26.8534 34.948 26.3854 34.688C25.9174 34.402 25.4754 34.064 25.0594 33.674C24.6434 33.284 24.2664 32.868 23.9284 32.426C23.6164 31.958 23.4084 31.542 23.3044 31.178C23.1484 30.658 23.0834 30.138 23.1094 29.618C23.1614 29.072 23.2264 28.539 23.3044 28.019C23.4084 27.447 23.5644 26.784 23.7724 26.03C24.0064 25.276 24.2924 24.483 24.6304 23.651C24.9684 22.819 25.3584 22.013 25.8004 21.233C26.2684 20.427 26.7754 19.712 27.3214 19.088C27.8674 18.438 28.4524 17.931 29.0764 17.567C29.7264 17.177 30.4154 16.982 31.1434 16.982C31.8194 16.982 32.4564 17.177 33.0544 17.567C33.6524 17.931 34.1854 18.334 34.6534 18.776C34.7054 18.672 34.7574 18.516 34.8094 18.308C34.8874 18.074 34.9524 17.853 35.0044 17.645C35.0824 17.437 35.1474 17.255 35.1994 17.099C35.2514 16.917 35.2904 16.826 35.3164 16.826H35.3944C35.5244 16.826 35.7844 16.891 36.1744 17.021C36.5904 17.125 37.0064 17.294 37.4224 17.528C37.8644 17.736 38.2414 17.996 38.5534 18.308C38.8654 18.62 38.9954 18.971 38.9434 19.361C38.9434 19.387 38.8394 19.647 38.6314 20.141C38.4494 20.635 38.2154 21.272 37.9294 22.052C37.6694 22.806 37.3964 23.651 37.1104 24.587C36.8244 25.523 36.5774 26.446 36.3694 27.356C36.1874 28.24 36.0704 29.072 36.0184 29.852C35.9664 30.606 36.0444 31.191 36.2524 31.607C36.4084 31.841 36.5644 31.958 36.7204 31.958C37.0584 31.958 37.4614 31.646 37.9294 31.022C38.3974 30.398 38.9044 29.605 39.4504 28.643C39.9964 27.681 40.5554 26.615 41.1274 25.445C41.6994 24.275 42.2454 23.144 42.7654 22.052C42.8434 21.87 42.9474 21.753 43.0774 21.701C43.2334 21.623 43.3764 21.584 43.5064 21.584C43.7664 21.584 43.9874 21.662 44.1694 21.818C44.3774 21.948 44.4554 22.078 44.4034 22.208C44.3774 22.286 44.2344 22.663 43.9744 23.339C43.7404 24.015 43.4154 24.834 42.9994 25.796C42.6094 26.732 42.1414 27.746 41.5954 28.838C41.0494 29.93 40.4514 30.944 39.8014 31.88ZM27.5554 30.203C28.0754 29.891 28.7124 29.345 29.4664 28.565C30.2204 27.759 31.0134 26.68 31.8454 25.328C32.7034 23.976 33.4704 22.234 34.1464 20.102C33.4444 20.128 32.7814 20.336 32.1574 20.726C31.5594 21.116 31.0004 21.623 30.4804 22.247C29.9604 22.845 29.4794 23.534 29.0374 24.314C28.6214 25.068 28.2574 25.835 27.9454 26.615C27.6334 27.395 27.3604 28.162 27.1264 28.916C26.8924 29.644 26.7234 30.281 26.6194 30.827C26.6974 30.749 27.0094 30.541 27.5554 30.203ZM39.4199 32.465C39.8619 29.683 40.5119 26.927 41.3699 24.197C42.2539 21.467 43.2679 18.815 44.4119 16.241C44.5419 15.929 44.7629 15.773 45.0749 15.773C45.2309 15.773 45.3609 15.812 45.4649 15.89C45.9069 16.254 46.2969 16.605 46.6349 16.943C46.9209 17.229 47.1809 17.515 47.4149 17.801C47.6489 18.087 47.7399 18.308 47.6879 18.464C47.5579 18.984 47.3759 19.582 47.1419 20.258C46.9079 20.908 46.7129 21.428 46.5569 21.818C46.4269 22.156 46.3229 22.442 46.2449 22.676C46.1929 22.884 46.1409 23.066 46.0889 23.222C46.0629 23.378 46.0499 23.508 46.0499 23.612C47.0119 22.052 47.8959 20.648 48.7019 19.4C49.0659 18.854 49.4169 18.321 49.7549 17.801C50.1189 17.281 50.4569 16.813 50.7689 16.397C51.0809 15.981 51.3539 15.63 51.5879 15.344C51.8219 15.058 52.0039 14.876 52.1339 14.798C52.3679 14.668 52.6149 14.551 52.8749 14.447C53.1349 14.317 53.4079 14.252 53.6939 14.252C54.1359 14.252 54.5519 14.356 54.9419 14.564C55.3319 14.772 55.6829 15.019 55.9949 15.305C56.2289 15.513 56.3329 15.838 56.3069 16.28C56.3069 16.696 56.2289 17.177 56.0729 17.723C55.9429 18.269 55.7739 18.841 55.5659 19.439C55.3579 20.037 55.1759 20.622 55.0199 21.194C54.8639 21.74 54.7599 22.247 54.7079 22.715C54.6819 23.157 54.7729 23.508 54.9809 23.768C54.0969 23.638 53.3429 23.443 52.7189 23.183C52.1989 22.923 51.7439 22.585 51.3539 22.169C50.9899 21.727 50.9119 21.168 51.1199 20.492C51.3539 19.79 51.6009 19.231 51.8609 18.815C52.1209 18.399 52.2249 18.191 52.1729 18.191L52.1339 18.23C52.1079 18.23 52.0819 18.243 52.0559 18.269C51.2239 19.023 50.2749 20.141 49.2089 21.623C48.1429 23.079 47.0249 25.042 45.8549 27.512L44.5679 30.437C44.2819 31.113 44.0089 31.802 43.7489 32.504C43.5149 33.206 43.2549 33.934 42.9689 34.688C42.9689 34.662 42.9559 34.701 42.9299 34.805C42.9039 34.883 42.8519 34.974 42.7739 35.078C42.6959 35.208 42.6049 35.312 42.5009 35.39C42.4229 35.494 42.3319 35.546 42.2279 35.546C42.0459 35.546 41.8379 35.468 41.6039 35.312C41.3699 35.156 41.1359 34.974 40.9019 34.766C40.6679 34.532 40.4599 34.311 40.2779 34.103C40.0699 33.869 39.9139 33.674 39.8099 33.518C39.7319 33.388 39.6409 33.232 39.5369 33.05C39.4329 32.842 39.3939 32.647 39.4199 32.465ZM68.1023 16.748C68.1543 16.826 68.2063 16.943 68.2583 17.099C68.3363 17.255 68.4143 17.437 68.4923 17.645C68.5703 17.827 68.6223 18.009 68.6483 18.191C68.7003 18.347 68.7133 18.477 68.6873 18.581C68.6353 18.737 68.5703 18.841 68.4923 18.893C68.4143 18.919 68.3103 18.932 68.1803 18.932C67.5563 18.932 66.8543 19.01 66.0743 19.166C65.2683 19.322 64.4753 19.543 63.6953 19.829C62.9153 20.115 62.2003 20.479 61.5503 20.921C60.9003 21.363 60.4193 21.883 60.1073 22.481C60.0553 22.611 60.0033 22.767 59.9513 22.949C59.8993 23.105 59.9123 23.365 59.9903 23.729C60.0943 24.067 60.3023 24.522 60.6143 25.094C60.9263 25.64 61.4073 26.368 62.0573 27.278C62.5773 26.914 63.2273 26.485 64.0073 25.991C64.7873 25.471 65.5413 24.964 66.2693 24.47C67.0233 23.976 67.6863 23.547 68.2583 23.183C68.8303 22.793 69.1813 22.546 69.3113 22.442C69.4933 22.312 69.7013 22.247 69.9353 22.247H69.9743C70.2603 22.273 70.4423 22.429 70.5203 22.715C70.6243 22.975 70.5593 23.196 70.3253 23.378C69.1033 24.314 67.8813 25.172 66.6593 25.952C65.4633 26.706 64.2413 27.564 62.9933 28.526C63.3573 28.994 63.7213 29.475 64.0853 29.969C64.4493 30.463 64.7743 30.97 65.0603 31.49C65.1903 31.724 65.3073 32.023 65.4113 32.387C65.5413 32.751 65.5933 33.167 65.5673 33.635C65.5673 34.077 65.4633 34.558 65.2553 35.078C65.0473 35.598 64.6833 36.118 64.1633 36.638C63.7993 37.002 63.2923 37.392 62.6423 37.808C62.0183 38.25 61.3423 38.653 60.6143 39.017C59.8863 39.381 59.1583 39.68 58.4303 39.914C57.7023 40.148 57.0653 40.265 56.5193 40.265C56.0773 40.265 55.6613 40.174 55.2713 39.992C54.9073 39.836 54.5433 39.589 54.1793 39.251L53.5553 38.666C53.3473 38.432 53.1523 38.172 52.9703 37.886C52.7883 37.626 52.6713 37.34 52.6193 37.028C52.5413 36.742 52.5673 36.443 52.6973 36.131C52.8793 35.637 53.1783 35.156 53.5943 34.688C54.1143 34.064 54.6733 33.479 55.2713 32.933C55.8953 32.361 56.5063 31.815 57.1043 31.295C57.6503 30.801 58.1963 30.346 58.7423 29.93C59.3143 29.488 59.8993 29.046 60.4973 28.604C60.3153 28.37 60.0943 28.071 59.8343 27.707C59.5743 27.317 59.3013 26.927 59.0153 26.537C58.7553 26.147 58.4953 25.757 58.2353 25.367C58.0013 24.977 57.8063 24.639 57.6503 24.353C57.1303 23.469 56.8703 22.65 56.8703 21.896C56.8963 21.116 57.0653 20.375 57.3773 19.673C57.6893 18.997 58.1313 18.373 58.7033 17.801C59.2753 17.229 59.9123 16.735 60.6143 16.319C61.3423 15.903 62.0963 15.578 62.8763 15.344C63.6563 15.084 64.3973 14.954 65.0993 14.954C65.8533 14.954 66.4383 15.084 66.8543 15.344C67.2703 15.604 67.6863 16.072 68.1023 16.748ZM53.9063 36.677C54.5303 36.599 55.3103 36.417 56.2463 36.131C57.1823 35.871 58.0923 35.52 58.9763 35.078C59.8603 34.636 60.6143 34.116 61.2383 33.518C61.8883 32.894 62.2523 32.218 62.3303 31.49C62.3303 31.36 62.2913 31.217 62.2133 31.061C62.1613 30.905 62.0833 30.749 61.9793 30.593C61.9013 30.411 61.8103 30.255 61.7063 30.125C61.6023 29.969 61.5243 29.865 61.4723 29.813C59.8343 31.295 58.3653 32.608 57.0653 33.752C55.7913 34.87 54.7383 35.845 53.9063 36.677Z" fill="url(#paint0_linear_2_259)"/>
<path d="M20.774 45.583L22.673 45.61C23.657 45.61 24.377 45.574 24.833 45.502C24.899 45.628 24.932 45.772 24.932 45.934C24.932 46.096 24.86 46.243 24.716 46.375C24.572 46.501 24.398 46.564 24.194 46.564L23.159 46.447C23.159 46.489 23.144 46.675 23.114 47.005C23.03 47.815 22.988 48.628 22.988 49.444C22.988 50.26 23.051 51.076 23.177 51.892C22.979 51.964 22.772 52 22.556 52C22.34 52 22.154 51.94 21.998 51.82C21.842 51.694 21.764 51.508 21.764 51.262C21.764 51.01 21.794 50.569 21.854 49.939C21.914 49.309 21.944 48.697 21.944 48.103C21.944 47.503 21.914 46.945 21.854 46.429C21.128 46.465 20.561 46.567 20.153 46.735C20.081 46.597 20.045 46.444 20.045 46.276C20.045 46.102 20.114 45.943 20.252 45.799C20.39 45.655 20.564 45.583 20.774 45.583ZM29.5918 48.364L29.5018 50.344C29.5018 50.872 29.5888 51.406 29.7628 51.946C29.5768 52.018 29.3878 52.054 29.1958 52.054C28.6738 52.054 28.4128 51.778 28.4128 51.226C28.4128 50.818 28.4488 50.338 28.5208 49.786C28.5928 49.234 28.6288 48.895 28.6288 48.769C28.6288 48.457 28.4878 48.301 28.2058 48.301C27.9058 48.301 27.5728 48.583 27.2068 49.147C26.8408 49.705 26.6308 50.173 26.5768 50.551C26.5888 50.725 26.6488 51.172 26.7568 51.892C26.5708 51.964 26.3668 52 26.1448 52C25.6828 52 25.4518 51.775 25.4518 51.325C25.4518 51.109 25.4848 50.686 25.5508 50.056C25.6168 49.42 25.6498 48.91 25.6498 48.526C25.6498 47.248 25.5778 46.192 25.4338 45.358C25.6258 45.286 25.8238 45.25 26.0278 45.25C26.2318 45.25 26.3998 45.319 26.5318 45.457C26.6698 45.589 26.7388 45.772 26.7388 46.006C26.7388 46.24 26.7058 46.723 26.6398 47.455C26.5798 48.187 26.5498 48.757 26.5498 49.165C26.7598 48.721 27.0658 48.316 27.4678 47.95C27.8758 47.578 28.2808 47.392 28.6828 47.392C29.2888 47.392 29.5918 47.716 29.5918 48.364ZM31.4909 49.957C31.4909 50.389 31.5599 50.731 31.6979 50.983C31.8359 51.229 32.0669 51.352 32.3909 51.352C32.7149 51.352 32.9669 51.244 33.1469 51.028C33.3329 50.806 33.4259 50.539 33.4259 50.227C33.6299 50.227 33.8069 50.278 33.9569 50.38C34.1069 50.482 34.1819 50.623 34.1819 50.803C34.1819 51.175 33.9839 51.487 33.5879 51.739C33.1919 51.985 32.7749 52.108 32.3369 52.108C31.6529 52.108 31.1579 51.925 30.8519 51.559C30.5459 51.187 30.3929 50.638 30.3929 49.912C30.3929 49.186 30.5969 48.577 31.0049 48.085C31.4189 47.587 31.9679 47.338 32.6519 47.338C33.1199 47.338 33.4949 47.446 33.7769 47.662C34.0649 47.872 34.2089 48.202 34.2089 48.652C34.2089 49.096 34.0049 49.432 33.5969 49.66C33.1949 49.882 32.7029 49.993 32.1209 49.993C31.9169 49.993 31.7069 49.981 31.4909 49.957ZM31.4999 49.246C31.6799 49.282 31.8689 49.3 32.0669 49.3C32.4989 49.3 32.8619 49.219 33.1559 49.057C33.1919 48.913 33.2099 48.799 33.2099 48.715C33.2099 48.505 33.1349 48.346 32.9849 48.238C32.8349 48.13 32.6279 48.076 32.3639 48.076C32.1059 48.076 31.8719 48.16 31.6619 48.328C31.5539 48.64 31.4999 48.946 31.4999 49.246ZM39.1708 47.761C39.0088 48.451 38.9278 49.144 38.9278 49.84C38.9278 50.53 39.0058 51.214 39.1618 51.892C38.9458 51.964 38.7238 52 38.4958 52C38.2678 52 38.1088 51.934 38.0188 51.802C37.9288 51.664 37.8838 51.469 37.8838 51.217C37.8838 50.959 37.9228 50.608 38.0008 50.164C37.5748 51.076 37.1638 51.652 36.7678 51.892C36.5878 52 36.4018 52.054 36.2098 52.054C35.7538 52.054 35.3998 51.886 35.1478 51.55C34.8958 51.208 34.7698 50.785 34.7698 50.281C34.7698 49.513 34.9828 48.841 35.4088 48.265C35.8348 47.683 36.3868 47.392 37.0648 47.392C37.7488 47.392 38.4508 47.515 39.1708 47.761ZM37.9918 48.301C37.6738 48.205 37.4038 48.157 37.1818 48.157C36.7318 48.157 36.3958 48.256 36.1738 48.454C35.9698 48.958 35.8678 49.471 35.8678 49.993C35.8678 50.269 35.9098 50.548 35.9938 50.83C36.0838 51.112 36.2188 51.253 36.3988 51.253C36.6088 51.253 36.8788 50.944 37.2088 50.326C37.5388 49.708 37.7998 49.033 37.9918 48.301ZM40.3131 46.123C40.5051 46.027 40.7001 45.979 40.8981 45.979C41.0961 45.979 41.2551 46.042 41.3751 46.168C41.5011 46.294 41.5641 46.48 41.5641 46.726C41.5641 46.972 41.5491 47.251 41.5191 47.563C41.9691 47.563 42.3981 47.5 42.8061 47.374C42.8781 47.494 42.9141 47.635 42.9141 47.797C42.9141 47.953 42.8421 48.082 42.6981 48.184C42.5601 48.28 42.4191 48.328 42.2751 48.328C42.1311 48.328 41.9691 48.31 41.7891 48.274C41.6091 48.238 41.4921 48.217 41.4381 48.211C41.4321 48.265 41.4141 48.373 41.3841 48.535C41.3601 48.697 41.3391 48.838 41.3211 48.958C41.2731 49.288 41.2491 49.642 41.2491 50.02C41.2491 50.842 41.5161 51.253 42.0501 51.253C42.2481 51.253 42.4761 51.184 42.7341 51.046C42.8121 51.16 42.8511 51.307 42.8511 51.487C42.8511 51.667 42.7521 51.808 42.5541 51.91C42.3621 52.006 42.1311 52.054 41.8611 52.054C40.8051 52.054 40.2771 51.454 40.2771 50.254C40.2771 50.08 40.3011 49.765 40.3491 49.309C40.4031 48.853 40.4301 48.484 40.4301 48.202C40.1421 48.22 39.9111 48.271 39.7371 48.355C39.6651 48.247 39.6291 48.124 39.6291 47.986C39.6291 47.842 39.6801 47.725 39.7821 47.635C39.8841 47.539 40.0101 47.491 40.1601 47.491C40.3101 47.491 40.4091 47.494 40.4571 47.5C40.4631 47.452 40.4661 47.389 40.4661 47.311C40.4661 46.861 40.4151 46.465 40.3131 46.123ZM44.3229 49.957C44.3229 50.389 44.3919 50.731 44.5299 50.983C44.6679 51.229 44.8989 51.352 45.2229 51.352C45.5469 51.352 45.7989 51.244 45.9789 51.028C46.1649 50.806 46.2579 50.539 46.2579 50.227C46.4619 50.227 46.6389 50.278 46.7889 50.38C46.9389 50.482 47.0139 50.623 47.0139 50.803C47.0139 51.175 46.8159 51.487 46.4199 51.739C46.0239 51.985 45.6069 52.108 45.1689 52.108C44.4849 52.108 43.9899 51.925 43.6839 51.559C43.3779 51.187 43.2249 50.638 43.2249 49.912C43.2249 49.186 43.4289 48.577 43.8369 48.085C44.2509 47.587 44.7999 47.338 45.4839 47.338C45.9519 47.338 46.3269 47.446 46.6089 47.662C46.8969 47.872 47.0409 48.202 47.0409 48.652C47.0409 49.096 46.8369 49.432 46.4289 49.66C46.0269 49.882 45.5349 49.993 44.9529 49.993C44.7489 49.993 44.5389 49.981 44.3229 49.957ZM44.3319 49.246C44.5119 49.282 44.7009 49.3 44.8989 49.3C45.3309 49.3 45.6939 49.219 45.9879 49.057C46.0239 48.913 46.0419 48.799 46.0419 48.715C46.0419 48.505 45.9669 48.346 45.8169 48.238C45.6669 48.13 45.4599 48.076 45.1959 48.076C44.9379 48.076 44.7039 48.16 44.4939 48.328C44.3859 48.64 44.3319 48.946 44.3319 49.246ZM49.2129 51.892C49.0269 51.964 48.8289 52 48.6189 52C48.4089 52 48.2379 51.952 48.1059 51.856C47.9799 51.754 47.9169 51.616 47.9169 51.442C47.9169 51.262 47.9439 50.938 47.9979 50.47C48.0519 50.002 48.0789 49.549 48.0789 49.111C48.0789 48.667 48.0099 48.148 47.8719 47.554C48.0639 47.482 48.2529 47.446 48.4389 47.446C48.6249 47.446 48.7839 47.509 48.9159 47.635C49.0539 47.761 49.1229 47.929 49.1229 48.139C49.1229 48.247 49.1049 48.409 49.0689 48.625C49.0329 48.835 49.0119 48.994 49.0059 49.102C49.2399 48.568 49.5159 48.151 49.8339 47.851C50.1579 47.545 50.4789 47.392 50.7969 47.392C51.0189 47.392 51.1959 47.47 51.3279 47.626C51.4599 47.782 51.5259 47.98 51.5259 48.22C51.5259 48.454 51.4659 48.646 51.3459 48.796C51.2259 48.94 51.0759 49.012 50.8959 49.012C50.7219 49.012 50.5809 48.994 50.4729 48.958C50.4909 48.886 50.4999 48.82 50.4999 48.76C50.4999 48.514 50.4129 48.391 50.2389 48.391C49.9749 48.391 49.7259 48.658 49.4919 49.192C49.2639 49.72 49.1109 50.215 49.0329 50.677C49.0629 51.127 49.1229 51.532 49.2129 51.892Z" fill="white"/>
<defs>
<linearGradient id="paint0_linear_2_259" x1="61.5" y1="12.5" x2="6.98715e-07" y2="41" gradientUnits="userSpaceOnUse">
<stop stop-color="#D22424"/>
<stop offset="1" stop-color="#FA4141"/>
</linearGradient>
</defs>
</svg>
