<svg width="20" height="21" viewBox="0 0 20 21" fill="none" xmlns="http://www.w3.org/2000/svg">
<path d="M7.14373 18.8373V15.7705C7.14372 14.9933 7.77567 14.3619 8.55844 14.357H11.4326C12.2189 14.357 12.8563 14.9898 12.8563 15.7705V18.8284C12.8562 19.5025 13.404 20.0503 14.0829 20.0552H16.0438C16.9596 20.0575 17.8388 19.698 18.4872 19.0559C19.1356 18.4138 19.5 17.542 19.5 16.6327V7.92105C19.5 7.18659 19.1721 6.48992 18.6046 6.01871L11.943 0.729475C10.7785 -0.195671 9.11537 -0.165785 7.98539 0.80059L1.46701 6.01871C0.872741 6.47603 0.517552 7.17477 0.5 7.92105V16.6238C0.5 18.5189 2.04738 20.0552 3.95617 20.0552H5.87229C6.19917 20.0575 6.51349 19.9303 6.74547 19.7016C6.97746 19.473 7.10793 19.1619 7.10792 18.8373H7.14373Z" fill="#303030"/>
</svg>
