<svg width="172" height="138" viewBox="0 0 172 138" fill="none" xmlns="http://www.w3.org/2000/svg">
<path d="M38.408 41.072C38.536 41.264 38.664 41.552 38.792 41.936C38.984 42.32 39.176 42.768 39.368 43.28C39.56 43.728 39.688 44.176 39.752 44.624C39.88 45.008 39.912 45.328 39.848 45.584C39.72 45.968 39.56 46.224 39.368 46.352C39.176 46.416 38.92 46.448 38.6 46.448C37.064 46.448 35.336 46.64 33.416 47.024C31.432 47.408 29.48 47.952 27.56 48.656C25.64 49.36 23.88 50.256 22.28 51.344C20.68 52.432 19.496 53.712 18.728 55.184C18.6 55.504 18.472 55.888 18.344 56.336C18.216 56.72 18.248 57.36 18.44 58.256C18.696 59.088 19.208 60.208 19.976 61.616C20.744 62.96 21.928 64.752 23.528 66.992C24.808 66.096 26.408 65.04 28.328 63.824C30.248 62.544 32.104 61.296 33.896 60.08C35.752 58.864 37.384 57.808 38.792 56.912C40.2 55.952 41.064 55.344 41.384 55.088C41.832 54.768 42.344 54.608 42.92 54.608H43.016C43.72 54.672 44.168 55.056 44.36 55.76C44.616 56.4 44.456 56.944 43.88 57.392C40.872 59.696 37.864 61.808 34.856 63.728C31.912 65.584 28.904 67.696 25.832 70.064C26.728 71.216 27.624 72.4 28.52 73.616C29.416 74.832 30.216 76.08 30.92 77.36C31.24 77.936 31.528 78.672 31.784 79.568C32.104 80.464 32.232 81.488 32.168 82.64C32.168 83.728 31.912 84.912 31.4 86.192C30.888 87.472 29.992 88.752 28.712 90.032C27.816 90.928 26.568 91.888 24.968 92.912C23.432 94 21.768 94.992 19.976 95.888C18.184 96.784 16.392 97.52 14.6 98.096C12.808 98.672 11.24 98.96 9.896 98.96C8.808 98.96 7.784 98.736 6.824 98.288C5.928 97.904 5.032 97.296 4.136 96.464L2.6 95.024C2.088 94.448 1.608 93.808 1.16 93.104C0.712 92.464 0.424 91.76 0.296 90.992C0.104 90.288 0.168 89.552 0.488 88.784C0.936 87.568 1.672 86.384 2.696 85.232C3.976 83.696 5.352 82.256 6.824 80.912C8.36 79.504 9.864 78.16 11.336 76.88C12.68 75.664 14.024 74.544 15.368 73.52C16.776 72.432 18.216 71.344 19.688 70.256C19.24 69.68 18.696 68.944 18.056 68.048C17.416 67.088 16.744 66.128 16.04 65.168C15.4 64.208 14.76 63.248 14.12 62.288C13.544 61.328 13.064 60.496 12.68 59.792C11.4 57.616 10.76 55.6 10.76 53.744C10.824 51.824 11.24 50 12.008 48.272C12.776 46.608 13.864 45.072 15.272 43.664C16.68 42.256 18.248 41.04 19.976 40.016C21.768 38.992 23.624 38.192 25.544 37.616C27.464 36.976 29.288 36.656 31.016 36.656C32.872 36.656 34.312 36.976 35.336 37.616C36.36 38.256 37.384 39.408 38.408 41.072ZM3.464 90.128C5 89.936 6.92 89.488 9.224 88.784C11.528 88.144 13.768 87.28 15.944 86.192C18.12 85.104 19.976 83.824 21.512 82.352C23.112 80.816 24.008 79.152 24.2 77.36C24.2 77.04 24.104 76.688 23.912 76.304C23.784 75.92 23.592 75.536 23.336 75.152C23.144 74.704 22.92 74.32 22.664 74C22.408 73.616 22.216 73.36 22.088 73.232C18.056 76.88 14.44 80.112 11.24 82.928C8.104 85.68 5.512 88.08 3.464 90.128ZM81.314 31.568C81.57 31.888 81.826 32.304 82.082 32.816C82.402 33.264 82.498 33.712 82.37 34.16C82.306 34.672 81.954 34.928 81.314 34.928H80.93C74.914 34.352 68.834 34.064 62.69 34.064C60.642 37.52 58.562 41.36 56.45 45.584C54.338 49.744 52.418 54.096 50.69 58.64C48.962 63.12 47.522 67.632 46.37 72.176C45.218 76.72 44.578 81.072 44.45 85.232C44.322 86.64 44.322 88.016 44.45 89.36C44.514 89.68 44.546 90 44.546 90.32C44.61 90.64 44.674 90.96 44.738 91.28V91.568C44.866 91.952 44.962 92.336 45.026 92.72C45.154 93.104 45.282 93.488 45.41 93.872C45.922 94.384 46.37 94.896 46.754 95.408C47.138 95.984 47.426 96.56 47.618 97.136C47.746 97.456 47.778 97.744 47.714 98C47.65 98.256 47.458 98.448 47.138 98.576H46.85C46.466 98.576 46.05 98.448 45.602 98.192C45.154 97.936 44.802 97.744 44.546 97.616C42.498 96.336 40.77 94.736 39.362 92.816C37.954 90.896 36.994 88.752 36.482 86.384C36.098 84.208 35.938 82.032 36.002 79.856C36.002 77.68 36.162 75.472 36.482 73.232C37.506 66.64 39.266 60.016 41.762 53.36C44.258 46.704 47.074 40.432 50.21 34.544C48.354 34.672 46.53 34.832 44.738 35.024C42.946 35.152 41.122 35.344 39.266 35.6C38.626 35.6 37.89 35.408 37.058 35.024C36.226 34.576 35.426 34.032 34.658 33.392C33.89 32.752 33.218 32.048 32.642 31.28C32.066 30.512 31.714 29.808 31.586 29.168C31.458 28.848 31.426 28.528 31.49 28.208C31.554 27.888 31.778 27.696 32.162 27.632C36.002 27.12 39.778 26.768 43.49 26.576C47.266 26.32 51.074 26.16 54.914 26.096L57.506 22.16C58.722 20.368 60.034 18.512 61.442 16.592C62.914 14.672 64.322 13.008 65.666 11.6C67.074 10.128 68.194 9.392 69.026 9.392C69.602 9.392 70.242 9.616 70.946 10.064C71.714 10.448 72.418 10.928 73.058 11.504C73.762 12.08 74.37 12.688 74.882 13.328C75.458 13.968 75.874 14.512 76.13 14.96C76.13 15.024 76.162 15.152 76.226 15.344C76.354 15.536 76.45 15.76 76.514 16.016C76.578 16.208 76.61 16.4 76.61 16.592C76.61 16.784 76.546 16.912 76.418 16.976C75.714 17.36 74.946 17.968 74.114 18.8C73.282 19.568 72.482 20.4 71.714 21.296C70.946 22.192 70.21 23.088 69.506 23.984C68.802 24.88 68.194 25.68 67.682 26.384C68.962 26.512 70.242 26.608 71.522 26.672C72.802 26.736 74.082 26.832 75.362 26.96C75.874 27.024 76.418 27.248 76.994 27.632C77.57 27.952 78.114 28.336 78.626 28.784C79.202 29.232 79.714 29.712 80.162 30.224C80.674 30.736 81.058 31.184 81.314 31.568ZM95.588 78.32C93.988 80.624 92.324 82.544 90.596 84.08C88.868 85.552 87.076 86.288 85.22 86.288C84.132 86.288 83.108 86.064 82.148 85.616C81.252 85.104 80.42 84.464 79.652 83.696C78.948 82.928 78.34 82.064 77.828 81.104C77.316 80.144 76.932 79.184 76.676 78.224C76.356 77.072 76.228 76.016 76.292 75.056C76.42 74.032 76.42 73.136 76.292 72.368C75.908 72.88 75.268 73.904 74.372 75.44C73.54 76.912 72.612 78.448 71.588 80.048C70.564 81.584 69.508 82.992 68.42 84.272C67.396 85.552 66.5 86.192 65.732 86.192C64.772 86.192 63.716 85.872 62.564 85.232C61.412 84.528 60.324 83.696 59.3 82.736C58.276 81.776 57.348 80.752 56.516 79.664C55.748 78.512 55.236 77.488 54.98 76.592C54.596 75.312 54.436 74.032 54.5 72.752C54.628 71.408 54.788 70.096 54.98 68.816C55.236 67.408 55.62 65.776 56.132 63.92C56.708 62.064 57.412 60.112 58.244 58.064C59.076 56.016 60.036 54.032 61.124 52.112C62.276 50.128 63.524 48.368 64.868 46.832C66.212 45.232 67.652 43.984 69.188 43.088C70.788 42.128 72.484 41.648 74.276 41.648C75.94 41.648 77.508 42.128 78.98 43.088C80.452 43.984 81.764 44.976 82.916 46.064C83.044 45.808 83.172 45.424 83.3 44.912C83.492 44.336 83.652 43.792 83.78 43.28C83.972 42.768 84.132 42.32 84.26 41.936C84.388 41.488 84.484 41.264 84.548 41.264H84.74C85.06 41.264 85.7 41.424 86.66 41.744C87.684 42 88.708 42.416 89.732 42.992C90.82 43.504 91.748 44.144 92.516 44.912C93.284 45.68 93.604 46.544 93.476 47.504C93.476 47.568 93.22 48.208 92.708 49.424C92.26 50.64 91.684 52.208 90.98 54.128C90.34 55.984 89.668 58.064 88.964 60.368C88.26 62.672 87.652 64.944 87.14 67.184C86.692 69.36 86.404 71.408 86.276 73.328C86.148 75.184 86.34 76.624 86.852 77.648C87.236 78.224 87.62 78.512 88.004 78.512C88.836 78.512 89.828 77.744 90.98 76.208C92.132 74.672 93.38 72.72 94.724 70.352C96.068 67.984 97.444 65.36 98.852 62.48C100.26 59.6 101.604 56.816 102.884 54.128C103.076 53.68 103.332 53.392 103.652 53.264C104.036 53.072 104.388 52.976 104.708 52.976C105.348 52.976 105.892 53.168 106.34 53.552C106.852 53.872 107.044 54.192 106.916 54.512C106.852 54.704 106.5 55.632 105.86 57.296C105.284 58.96 104.484 60.976 103.46 63.344C102.5 65.648 101.348 68.144 100.004 70.832C98.66 73.52 97.188 76.016 95.588 78.32ZM65.444 74.192C66.724 73.424 68.292 72.08 70.148 70.16C72.004 68.176 73.956 65.52 76.004 62.192C78.116 58.864 80.004 54.576 81.668 49.328C79.94 49.392 78.308 49.904 76.772 50.864C75.3 51.824 73.924 53.072 72.644 54.608C71.364 56.08 70.18 57.776 69.092 59.696C68.068 61.552 67.172 63.44 66.404 65.36C65.636 67.28 64.964 69.168 64.388 71.024C63.812 72.816 63.396 74.384 63.14 75.728C63.332 75.536 64.1 75.024 65.444 74.192ZM94.649 79.76C95.737 72.912 97.337 66.128 99.449 59.408C101.625 52.688 104.121 46.16 106.937 39.824C107.257 39.056 107.801 38.672 108.569 38.672C108.953 38.672 109.273 38.768 109.529 38.96C110.617 39.856 111.577 40.72 112.409 41.552C113.113 42.256 113.753 42.96 114.329 43.664C114.905 44.368 115.129 44.912 115.001 45.296C114.681 46.576 114.233 48.048 113.657 49.712C113.081 51.312 112.601 52.592 112.217 53.552C111.897 54.384 111.641 55.088 111.449 55.664C111.321 56.176 111.193 56.624 111.065 57.008C111.001 57.392 110.969 57.712 110.969 57.968C113.337 54.128 115.513 50.672 117.497 47.6C118.393 46.256 119.257 44.944 120.089 43.664C120.985 42.384 121.817 41.232 122.585 40.208C123.353 39.184 124.025 38.32 124.601 37.616C125.177 36.912 125.625 36.464 125.945 36.272C126.521 35.952 127.129 35.664 127.769 35.408C128.409 35.088 129.081 34.928 129.785 34.928C130.873 34.928 131.897 35.184 132.857 35.696C133.817 36.208 134.681 36.816 135.449 37.52C136.025 38.032 136.281 38.832 136.217 39.92C136.217 40.944 136.025 42.128 135.641 43.472C135.321 44.816 134.905 46.224 134.393 47.696C133.881 49.168 133.433 50.608 133.049 52.016C132.665 53.36 132.409 54.608 132.281 55.76C132.217 56.848 132.441 57.712 132.953 58.352C130.777 58.032 128.921 57.552 127.385 56.912C126.105 56.272 124.985 55.44 124.025 54.416C123.129 53.328 122.937 51.952 123.449 50.288C124.025 48.56 124.633 47.184 125.273 46.16C125.913 45.136 126.169 44.624 126.041 44.624L125.945 44.72C125.881 44.72 125.817 44.752 125.753 44.816C123.705 46.672 121.369 49.424 118.745 53.072C116.121 56.656 113.369 61.488 110.489 67.568L107.321 74.768C106.617 76.432 105.945 78.128 105.305 79.856C104.729 81.584 104.089 83.376 103.385 85.232C103.385 85.168 103.353 85.264 103.289 85.52C103.225 85.712 103.097 85.936 102.905 86.192C102.713 86.512 102.489 86.768 102.233 86.96C102.041 87.216 101.817 87.344 101.561 87.344C101.113 87.344 100.601 87.152 100.025 86.768C99.449 86.384 98.873 85.936 98.297 85.424C97.721 84.848 97.209 84.304 96.761 83.792C96.249 83.216 95.865 82.736 95.609 82.352C95.417 82.032 95.193 81.648 94.937 81.2C94.681 80.688 94.585 80.208 94.649 79.76ZM165.252 41.072C165.38 41.264 165.508 41.552 165.636 41.936C165.828 42.32 166.02 42.768 166.212 43.28C166.404 43.728 166.532 44.176 166.596 44.624C166.724 45.008 166.756 45.328 166.692 45.584C166.564 45.968 166.404 46.224 166.212 46.352C166.02 46.416 165.764 46.448 165.444 46.448C163.908 46.448 162.18 46.64 160.26 47.024C158.276 47.408 156.324 47.952 154.404 48.656C152.484 49.36 150.724 50.256 149.124 51.344C147.524 52.432 146.34 53.712 145.572 55.184C145.444 55.504 145.316 55.888 145.188 56.336C145.06 56.72 145.092 57.36 145.284 58.256C145.54 59.088 146.052 60.208 146.82 61.616C147.588 62.96 148.772 64.752 150.372 66.992C151.652 66.096 153.252 65.04 155.172 63.824C157.092 62.544 158.948 61.296 160.74 60.08C162.596 58.864 164.228 57.808 165.636 56.912C167.044 55.952 167.908 55.344 168.228 55.088C168.676 54.768 169.188 54.608 169.764 54.608H169.86C170.564 54.672 171.012 55.056 171.204 55.76C171.46 56.4 171.3 56.944 170.724 57.392C167.716 59.696 164.708 61.808 161.7 63.728C158.756 65.584 155.748 67.696 152.676 70.064C153.572 71.216 154.468 72.4 155.364 73.616C156.26 74.832 157.06 76.08 157.764 77.36C158.084 77.936 158.372 78.672 158.628 79.568C158.948 80.464 159.076 81.488 159.012 82.64C159.012 83.728 158.756 84.912 158.244 86.192C157.732 87.472 156.836 88.752 155.556 90.032C154.66 90.928 153.412 91.888 151.812 92.912C150.276 94 148.612 94.992 146.82 95.888C145.028 96.784 143.236 97.52 141.444 98.096C139.652 98.672 138.084 98.96 136.74 98.96C135.652 98.96 134.628 98.736 133.668 98.288C132.772 97.904 131.876 97.296 130.98 96.464L129.444 95.024C128.932 94.448 128.452 93.808 128.004 93.104C127.556 92.464 127.268 91.76 127.14 90.992C126.948 90.288 127.012 89.552 127.332 88.784C127.78 87.568 128.516 86.384 129.54 85.232C130.82 83.696 132.196 82.256 133.668 80.912C135.204 79.504 136.708 78.16 138.18 76.88C139.524 75.664 140.868 74.544 142.212 73.52C143.62 72.432 145.06 71.344 146.532 70.256C146.084 69.68 145.54 68.944 144.9 68.048C144.26 67.088 143.588 66.128 142.884 65.168C142.244 64.208 141.604 63.248 140.964 62.288C140.388 61.328 139.908 60.496 139.524 59.792C138.244 57.616 137.604 55.6 137.604 53.744C137.668 51.824 138.084 50 138.852 48.272C139.62 46.608 140.708 45.072 142.116 43.664C143.524 42.256 145.092 41.04 146.82 40.016C148.612 38.992 150.468 38.192 152.388 37.616C154.308 36.976 156.132 36.656 157.86 36.656C159.716 36.656 161.156 36.976 162.18 37.616C163.204 38.256 164.228 39.408 165.252 41.072ZM130.308 90.128C131.844 89.936 133.764 89.488 136.068 88.784C138.372 88.144 140.612 87.28 142.788 86.192C144.964 85.104 146.82 83.824 148.356 82.352C149.956 80.816 150.852 79.152 151.044 77.36C151.044 77.04 150.948 76.688 150.756 76.304C150.628 75.92 150.436 75.536 150.18 75.152C149.988 74.704 149.764 74.32 149.508 74C149.252 73.616 149.06 73.36 148.932 73.232C144.9 76.88 141.284 80.112 138.084 82.928C134.948 85.68 132.356 88.08 130.308 90.128Z" fill="url(#paint0_linear_2_357)"/>
<path d="M43.15 114.175L48.425 114.25C51.1583 114.25 53.1583 114.15 54.425 113.95C54.6083 114.3 54.7 114.7 54.7 115.15C54.7 115.6 54.5 116.008 54.1 116.375C53.7 116.725 53.2167 116.9 52.65 116.9L49.775 116.575C49.775 116.692 49.7333 117.208 49.65 118.125C49.4167 120.375 49.3 122.633 49.3 124.9C49.3 127.167 49.475 129.433 49.825 131.7C49.275 131.9 48.7 132 48.1 132C47.5 132 46.9833 131.833 46.55 131.5C46.1167 131.15 45.9 130.633 45.9 129.95C45.9 129.25 45.9833 128.025 46.15 126.275C46.3167 124.525 46.4 122.825 46.4 121.175C46.4 119.508 46.3167 117.958 46.15 116.525C44.1333 116.625 42.5583 116.908 41.425 117.375C41.225 116.992 41.125 116.567 41.125 116.1C41.125 115.617 41.3167 115.175 41.7 114.775C42.0833 114.375 42.5667 114.175 43.15 114.175ZM67.6439 121.9L67.3939 127.4C67.3939 128.867 67.6356 130.35 68.1189 131.85C67.6023 132.05 67.0773 132.15 66.5439 132.15C65.0939 132.15 64.3689 131.383 64.3689 129.85C64.3689 128.717 64.4689 127.383 64.6689 125.85C64.8689 124.317 64.9689 123.375 64.9689 123.025C64.9689 122.158 64.5773 121.725 63.7939 121.725C62.9606 121.725 62.0356 122.508 61.0189 124.075C60.0023 125.625 59.4189 126.925 59.2689 127.975C59.3023 128.458 59.4689 129.7 59.7689 131.7C59.2523 131.9 58.6856 132 58.0689 132C56.7856 132 56.1439 131.375 56.1439 130.125C56.1439 129.525 56.2356 128.35 56.4189 126.6C56.6023 124.833 56.6939 123.417 56.6939 122.35C56.6939 118.8 56.4939 115.867 56.0939 113.55C56.6273 113.35 57.1773 113.25 57.7439 113.25C58.3106 113.25 58.7773 113.442 59.1439 113.825C59.5273 114.192 59.7189 114.7 59.7189 115.35C59.7189 116 59.6273 117.342 59.4439 119.375C59.2773 121.408 59.1939 122.992 59.1939 124.125C59.7773 122.892 60.6273 121.767 61.7439 120.75C62.8773 119.717 64.0023 119.2 65.1189 119.2C66.8023 119.2 67.6439 120.1 67.6439 121.9ZM72.9191 126.325C72.9191 127.525 73.1108 128.475 73.4941 129.175C73.8775 129.858 74.5191 130.2 75.4191 130.2C76.3191 130.2 77.0191 129.9 77.5191 129.3C78.0358 128.683 78.2941 127.942 78.2941 127.075C78.8608 127.075 79.3525 127.217 79.7691 127.5C80.1858 127.783 80.3941 128.175 80.3941 128.675C80.3941 129.708 79.8441 130.575 78.7441 131.275C77.6441 131.958 76.4858 132.3 75.2691 132.3C73.3691 132.3 71.9941 131.792 71.1441 130.775C70.2941 129.742 69.8691 128.217 69.8691 126.2C69.8691 124.183 70.4358 122.492 71.5691 121.125C72.7191 119.742 74.2441 119.05 76.1441 119.05C77.4441 119.05 78.4858 119.35 79.2691 119.95C80.0691 120.533 80.4691 121.45 80.4691 122.7C80.4691 123.933 79.9025 124.867 78.7691 125.5C77.6525 126.117 76.2858 126.425 74.6691 126.425C74.1025 126.425 73.5191 126.392 72.9191 126.325ZM72.9441 124.35C73.4441 124.45 73.9691 124.5 74.5191 124.5C75.7191 124.5 76.7275 124.275 77.5441 123.825C77.6441 123.425 77.6941 123.108 77.6941 122.875C77.6941 122.292 77.4858 121.85 77.0691 121.55C76.6525 121.25 76.0775 121.1 75.3441 121.1C74.6275 121.1 73.9775 121.333 73.3941 121.8C73.0941 122.667 72.9441 123.517 72.9441 124.35ZM94.2523 120.225C93.8023 122.142 93.5773 124.067 93.5773 126C93.5773 127.917 93.794 129.817 94.2273 131.7C93.6273 131.9 93.0107 132 92.3773 132C91.744 132 91.3023 131.817 91.0523 131.45C90.8023 131.067 90.6773 130.525 90.6773 129.825C90.6773 129.108 90.7857 128.133 91.0023 126.9C89.819 129.433 88.6773 131.033 87.5773 131.7C87.0773 132 86.5607 132.15 86.0273 132.15C84.7607 132.15 83.7773 131.683 83.0773 130.75C82.3773 129.8 82.0273 128.625 82.0273 127.225C82.0273 125.092 82.619 123.225 83.8023 121.625C84.9857 120.008 86.519 119.2 88.4023 119.2C90.3023 119.2 92.2523 119.542 94.2523 120.225ZM90.9773 121.725C90.094 121.458 89.344 121.325 88.7273 121.325C87.4773 121.325 86.544 121.6 85.9273 122.15C85.3607 123.55 85.0773 124.975 85.0773 126.425C85.0773 127.192 85.194 127.967 85.4273 128.75C85.6773 129.533 86.0523 129.925 86.5523 129.925C87.1357 129.925 87.8857 129.067 88.8023 127.35C89.719 125.633 90.444 123.758 90.9773 121.725ZM97.4254 115.675C97.9587 115.408 98.5004 115.275 99.0504 115.275C99.6004 115.275 100.042 115.45 100.375 115.8C100.725 116.15 100.9 116.667 100.9 117.35C100.9 118.033 100.859 118.808 100.775 119.675C102.025 119.675 103.217 119.5 104.35 119.15C104.55 119.483 104.65 119.875 104.65 120.325C104.65 120.758 104.45 121.117 104.05 121.4C103.667 121.667 103.275 121.8 102.875 121.8C102.475 121.8 102.025 121.75 101.525 121.65C101.025 121.55 100.7 121.492 100.55 121.475C100.534 121.625 100.484 121.925 100.4 122.375C100.334 122.825 100.275 123.217 100.225 123.55C100.092 124.467 100.025 125.45 100.025 126.5C100.025 128.783 100.767 129.925 102.25 129.925C102.8 129.925 103.434 129.733 104.15 129.35C104.367 129.667 104.475 130.075 104.475 130.575C104.475 131.075 104.2 131.467 103.65 131.75C103.117 132.017 102.475 132.15 101.725 132.15C98.7921 132.15 97.3254 130.483 97.3254 127.15C97.3254 126.667 97.3921 125.792 97.5254 124.525C97.6754 123.258 97.7504 122.233 97.7504 121.45C96.9504 121.5 96.3087 121.642 95.8254 121.875C95.6254 121.575 95.5254 121.233 95.5254 120.85C95.5254 120.45 95.6671 120.125 95.9504 119.875C96.2337 119.608 96.5837 119.475 97.0004 119.475C97.4171 119.475 97.6921 119.483 97.8254 119.5C97.8421 119.367 97.8504 119.192 97.8504 118.975C97.8504 117.725 97.7087 116.625 97.4254 115.675ZM108.564 126.325C108.564 127.525 108.755 128.475 109.139 129.175C109.522 129.858 110.164 130.2 111.064 130.2C111.964 130.2 112.664 129.9 113.164 129.3C113.68 128.683 113.939 127.942 113.939 127.075C114.505 127.075 114.997 127.217 115.414 127.5C115.83 127.783 116.039 128.175 116.039 128.675C116.039 129.708 115.489 130.575 114.389 131.275C113.289 131.958 112.13 132.3 110.914 132.3C109.014 132.3 107.639 131.792 106.789 130.775C105.939 129.742 105.514 128.217 105.514 126.2C105.514 124.183 106.08 122.492 107.214 121.125C108.364 119.742 109.889 119.05 111.789 119.05C113.089 119.05 114.13 119.35 114.914 119.95C115.714 120.533 116.114 121.45 116.114 122.7C116.114 123.933 115.547 124.867 114.414 125.5C113.297 126.117 111.93 126.425 110.314 126.425C109.747 126.425 109.164 126.392 108.564 126.325ZM108.589 124.35C109.089 124.45 109.614 124.5 110.164 124.5C111.364 124.5 112.372 124.275 113.189 123.825C113.289 123.425 113.339 123.108 113.339 122.875C113.339 122.292 113.13 121.85 112.714 121.55C112.297 121.25 111.722 121.1 110.989 121.1C110.272 121.1 109.622 121.333 109.039 121.8C108.739 122.667 108.589 123.517 108.589 124.35ZM122.147 131.7C121.63 131.9 121.08 132 120.497 132C119.914 132 119.439 131.867 119.072 131.6C118.722 131.317 118.547 130.933 118.547 130.45C118.547 129.95 118.622 129.05 118.772 127.75C118.922 126.45 118.997 125.192 118.997 123.975C118.997 122.742 118.805 121.3 118.422 119.65C118.955 119.45 119.48 119.35 119.997 119.35C120.514 119.35 120.955 119.525 121.322 119.875C121.705 120.225 121.897 120.692 121.897 121.275C121.897 121.575 121.847 122.025 121.747 122.625C121.647 123.208 121.589 123.65 121.572 123.95C122.222 122.467 122.989 121.308 123.872 120.475C124.772 119.625 125.664 119.2 126.547 119.2C127.164 119.2 127.655 119.417 128.022 119.85C128.389 120.283 128.572 120.833 128.572 121.5C128.572 122.15 128.405 122.683 128.072 123.1C127.739 123.5 127.322 123.7 126.822 123.7C126.339 123.7 125.947 123.65 125.647 123.55C125.697 123.35 125.722 123.167 125.722 123C125.722 122.317 125.48 121.975 124.997 121.975C124.264 121.975 123.572 122.717 122.922 124.2C122.289 125.667 121.864 127.042 121.647 128.325C121.73 129.575 121.897 130.7 122.147 131.7Z" fill="white"/>
<defs>
<linearGradient id="paint0_linear_2_357" x1="149" y1="30.5" x2="-1.91153" y2="101.052" gradientUnits="userSpaceOnUse">
<stop stop-color="#D22424"/>
<stop offset="1" stop-color="#FA4141"/>
</linearGradient>
</defs>
</svg>
