<svg width="23" height="22" viewBox="0 0 23 22" fill="none" xmlns="http://www.w3.org/2000/svg">
<path d="M18.2811 9.54103C18.2811 14.172 14.5521 17.9154 9.96527 17.9154C5.37846 17.9154 1.64944 14.172 1.64944 9.54103C1.64944 4.9101 5.37846 1.16669 9.96527 1.16669C14.5521 1.16669 18.2811 4.9101 18.2811 9.54103Z" stroke="#303030" stroke-width="2"/>
<path d="M20.8803 21.7849C20.5184 21.7732 20.1743 21.6243 19.9169 21.3681L17.7108 18.7894C17.2378 18.3568 17.1991 17.6217 17.6241 17.1414C17.823 16.9401 18.0934 16.8269 18.3755 16.8269C18.6576 16.8269 18.928 16.9401 19.1269 17.1414L21.9015 19.3613C22.3011 19.7704 22.4244 20.3777 22.2163 20.9117C22.0082 21.4457 21.5075 21.8068 20.9381 21.8334L20.8803 21.7849Z" fill="#6D6D6D"/>
</svg>
