<svg width="22" height="23" viewBox="0 0 22 23" fill="none" xmlns="http://www.w3.org/2000/svg">
<path d="M0.626465 14.2538H13.436C13.5183 14.2538 13.5998 14.2377 13.6758 14.2062C13.7519 14.1748 13.821 14.1286 13.8792 14.0704C13.9373 14.0123 13.9835 13.9432 14.0149 13.8671C14.0464 13.7911 14.0626 13.7096 14.0625 13.6273V11.7552C14.0626 11.673 14.0464 11.5915 14.0149 11.5154C13.9835 11.4394 13.9373 11.3703 13.8792 11.3121C13.821 11.2539 13.7519 11.2078 13.6758 11.1763C13.5998 11.1449 13.5183 11.1287 13.436 11.1288H0.626465C0.544178 11.1287 0.462687 11.1449 0.386651 11.1763C0.310616 11.2078 0.24153 11.2539 0.183344 11.3121C0.125159 11.3703 0.0790163 11.4394 0.0475562 11.5154C0.0160961 11.5915 -6.40206e-05 11.673 1.90603e-07 11.7552V13.6273C-6.40206e-05 13.7096 0.0160961 13.7911 0.0475562 13.8671C0.0790163 13.9432 0.125159 14.0123 0.183344 14.0704C0.24153 14.1286 0.310616 14.1748 0.386651 14.2062C0.462687 14.2377 0.544178 14.2538 0.626465 14.2538ZM21.0938 4.87878H0.78125C0.57405 4.87878 0.375336 4.96109 0.228823 5.10761C0.0823102 5.25412 1.90603e-07 5.45283 1.90603e-07 5.66003V7.22253C1.90603e-07 7.42973 0.0823102 7.62845 0.228823 7.77496C0.375336 7.92147 0.57405 8.00378 0.78125 8.00378H21.0938C21.301 8.00378 21.4997 7.92147 21.6462 7.77496C21.7927 7.62845 21.875 7.42973 21.875 7.22253V5.66003C21.875 5.45283 21.7927 5.25412 21.6462 5.10761C21.4997 4.96109 21.301 4.87878 21.0938 4.87878ZM21.0938 17.3788H0.78125C0.57405 17.3788 0.375336 17.4611 0.228823 17.6076C0.0823102 17.7541 1.90603e-07 17.9528 1.90603e-07 18.16V19.7225C1.90603e-07 19.9297 0.0823102 20.1284 0.228823 20.275C0.375336 20.4215 0.57405 20.5038 0.78125 20.5038H21.0938C21.301 20.5038 21.4997 20.4215 21.6462 20.275C21.7927 20.1284 21.875 19.9297 21.875 19.7225V18.16C21.875 17.9528 21.7927 17.7541 21.6462 17.6076C21.4997 17.4611 21.301 17.3788 21.0938 17.3788Z" fill="#D22424"/>
</svg>
